<?xml version="1.0" standalone="no"?>
<!DOCTYPE svg PUBLIC "-//W3C//DTD SVG 20010904//EN"
 "http://www.w3.org/TR/2001/REC-SVG-20010904/DTD/svg10.dtd">
<svg version="1.0" xmlns="http://www.w3.org/2000/svg"
 width="2000.000000pt" height="2000.000000pt" viewBox="0 0 2000.000000 2000.000000"
 preserveAspectRatio="xMidYMid meet">
<metadata>
Created by potrace 1.11, written by Peter Selinger 2001-2013
</metadata>
<g transform="translate(0.000000,2000.000000) scale(0.100000,-0.100000)"
fill="#000000" stroke="none">
<path d="M9618 19995 c-2 -1 -66 -6 -143 -9 -77 -4 -160 -9 -185 -11 -25 -2
-81 -6 -125 -10 -95 -7 -177 -14 -225 -20 -19 -2 -60 -7 -90 -10 -69 -8 -128
-15 -160 -20 -14 -2 -49 -7 -79 -10 -30 -4 -61 -8 -70 -10 -9 -1 -41 -6 -71
-11 -30 -4 -57 -8 -60 -9 -3 -1 -30 -5 -60 -10 -30 -5 -57 -9 -60 -10 -3 -1
-27 -5 -55 -10 -61 -9 -58 -9 -180 -34 -55 -11 -111 -22 -125 -25 -14 -3 -34
-7 -45 -10 -11 -2 -56 -12 -100 -21 -44 -9 -132 -30 -195 -46 -63 -17 -122
-32 -131 -34 -9 -2 -84 -22 -165 -45 -757 -211 -1532 -533 -2199 -913 -38 -22
-86 -48 -105 -59 -35 -20 -246 -148 -298 -180 -15 -10 -39 -24 -53 -32 -71
-40 -608 -412 -629 -435 -3 -3 -52 -42 -110 -86 -143 -108 -304 -240 -456
-372 -32 -28 -70 -61 -84 -73 -144 -123 -572 -545 -735 -724 -50 -55 -111
-122 -136 -150 -140 -155 -418 -503 -593 -743 -155 -213 -400 -587 -519 -793
-115 -198 -258 -459 -310 -565 -91 -186 -182 -378 -222 -470 -26 -60 -55 -128
-65 -150 -25 -56 -123 -304 -160 -405 -33 -90 -100 -278 -104 -295 -2 -5 -6
-17 -9 -25 -13 -31 -50 -152 -106 -345 -52 -174 -66 -224 -77 -270 -1 -5 -12
-48 -24 -95 -12 -47 -23 -92 -25 -100 -2 -8 -11 -46 -20 -85 -9 -38 -19 -79
-21 -90 -2 -11 -17 -85 -34 -165 -33 -161 -58 -297 -66 -350 -2 -19 -7 -51
-10 -70 -3 -19 -8 -44 -9 -55 -2 -11 -9 -56 -15 -100 -6 -44 -13 -91 -15 -105
-2 -14 -7 -50 -10 -80 -3 -30 -8 -66 -10 -80 -2 -14 -6 -54 -10 -90 -3 -36 -7
-78 -10 -95 -2 -16 -6 -68 -10 -115 -3 -47 -8 -105 -10 -130 -15 -162 -20
-360 -20 -755 0 -397 4 -532 20 -730 2 -27 7 -86 10 -130 4 -44 9 -95 11 -112
2 -18 6 -59 9 -90 3 -32 12 -110 20 -173 9 -63 18 -133 21 -155 3 -22 18 -121
34 -220 36 -219 39 -233 46 -265 3 -14 8 -36 10 -50 5 -25 48 -228 65 -305 5
-22 12 -51 15 -65 12 -59 89 -347 130 -490 48 -165 160 -515 185 -575 5 -11
29 -74 53 -140 25 -66 61 -160 81 -210 89 -218 88 -217 146 -343 16 -35 29
-65 29 -68 0 -21 305 -619 386 -757 19 -32 34 -60 34 -62 0 -3 15 -28 33 -58
46 -76 50 -83 108 -182 55 -95 253 -398 360 -550 242 -347 522 -694 839 -1040
163 -177 526 -533 703 -688 17 -16 48 -43 67 -60 19 -18 62 -54 95 -82 33 -27
67 -56 75 -64 56 -55 488 -386 660 -506 308 -216 609 -403 970 -604 133 -74
571 -288 740 -363 1030 -454 2115 -728 3230 -817 69 -6 152 -13 185 -16 33 -3
274 -8 535 -9 429 -3 622 1 823 18 37 3 100 9 140 12 670 53 1464 211 2142
426 220 69 645 224 780 283 17 7 116 50 220 95 375 162 910 442 1230 645 456
288 838 563 1155 831 396 335 743 671 1080 1049 25 27 47 52 50 55 8 7 192
228 272 326 70 86 286 372 351 465 107 152 151 217 243 359 56 85 146 232 201
325 94 160 121 209 215 380 36 65 279 555 298 600 5 11 20 46 34 77 14 31 26
59 26 62 0 3 11 29 24 58 44 94 126 297 126 311 0 7 4 17 8 22 35 39 291 828
347 1070 2 6 10 37 18 70 17 64 84 353 92 395 3 14 7 34 9 45 2 11 13 67 24
125 20 103 27 137 37 203 3 17 10 57 15 87 5 30 12 71 14 90 3 19 7 51 10 70
3 19 8 58 11 85 4 28 8 61 10 74 7 38 15 102 20 156 3 28 7 68 10 90 3 22 7
67 9 100 3 33 8 89 11 125 3 36 7 92 10 125 25 314 25 1066 0 1380 -14 171
-23 270 -30 330 -3 22 -7 69 -10 105 -3 36 -8 74 -10 85 -2 11 -7 43 -10 70
-20 162 -75 510 -96 603 -5 23 -12 59 -15 78 -3 20 -7 44 -9 53 -11 44 -36
159 -40 183 -3 14 -29 122 -59 240 -245 966 -616 1862 -1117 2692 -46 77 -91
151 -99 165 -24 42 -292 445 -299 451 -4 3 -18 21 -31 40 -32 47 -282 384
-290 390 -3 3 -41 50 -85 105 -43 55 -82 102 -85 105 -3 3 -30 34 -60 70 -54
65 -71 84 -210 240 -195 219 -562 585 -734 733 -12 10 -39 35 -61 56 -38 36
-308 262 -390 327 -22 18 -65 52 -95 75 -30 24 -86 67 -125 96 -38 28 -74 56
-80 60 -5 5 -38 28 -73 53 -34 25 -82 59 -105 76 -57 42 -395 267 -432 288
-16 9 -57 34 -90 56 -33 21 -71 45 -85 53 -14 8 -65 38 -115 67 -49 29 -110
64 -135 78 -25 13 -58 32 -75 42 -85 50 -484 252 -615 313 -242 111 -458 201
-705 294 -38 14 -83 31 -100 38 -28 12 -297 104 -320 109 -5 2 -17 6 -25 9 -8
3 -69 22 -135 42 -170 51 -207 62 -235 69 -14 4 -113 29 -220 57 -107 28 -215
54 -240 59 -25 5 -88 19 -140 31 -81 17 -211 43 -325 64 -16 3 -41 8 -55 10
-14 3 -43 7 -65 10 -22 3 -51 8 -65 11 -55 10 -67 12 -120 18 -30 4 -66 8 -80
11 -65 10 -182 25 -245 30 -38 4 -77 8 -85 10 -8 3 -51 7 -95 10 -44 3 -96 8
-115 10 -19 2 -82 7 -140 10 -58 4 -125 9 -150 11 -50 5 -927 14 -932 9z"/>
</g>
</svg>
